HIERARCHY
ROOT hip
{
  OFFSET 0.00112043 5.09927 -9.65472
  CHANNELS 6 Xposition Yposition Zposition Zrotation Xrotation Yrotation
  JOINT abdomen
  {
    OFFSET 0 -1.186 -1.5018
    CHANNELS 3 Zrotation Xrotation Yrotation
    JOINT abdomen2
    {
      OFFSET 0 9.964 0.2134
      CHANNELS 3 Zrotation Xrotation Yrotation
      JOINT chest
      {
        OFFSET 0 13.134 -3.2573
        CHANNELS 3 Zrotation Xrotation Yrotation
        JOINT neck
        {
          OFFSET 0 20.686 -1.6905
          CHANNELS 3 Zrotation Xrotation Yrotation
          JOINT head
          {
            OFFSET 0 7.238 -0.1237
            CHANNELS 3 Zrotation Xrotation Yrotation
            End Site
            {
              OFFSET 0 0 0
            }
          }
        }
        JOINT lCollar
        {
          OFFSET 1.7069 20.075 5.0056
          CHANNELS 3 Zrotation Xrotation Yrotation
          JOINT lShldr
          {
            OFFSET 13.6458 -0.047 -4.849
            CHANNELS 3 Zrotation Xrotation Yrotation
            JOINT lForeArm
            {
              OFFSET 28.3255 -0.9759 2.2888
              CHANNELS 3 Zrotation Xrotation Yrotation
              JOINT lHand
              {
                OFFSET 22.1583 -0.53 10.8316
                CHANNELS 3 Zrotation Xrotation Yrotation
                JOINT lThumb1
                {
                  OFFSET 0.786 0.112 2.5817
                  CHANNELS 3 Zrotation Xrotation Yrotation
                  JOINT lThumb2
                  {
                    OFFSET 0.3601 -0.878 4.2331
                    CHANNELS 3 Zrotation Xrotation Yrotation
                    JOINT lThumb2_End
                    {
                      OFFSET 1.8127 -1.216 2.2227
                      CHANNELS 3 Zrotation Xrotation Yrotation
                      End Site
                      {
                        OFFSET 0.0181 -0.0122 0.0222
                      }
                    }
                  }
                }
                JOINT lCarpal1
                {
                  OFFSET 0.9571 1.114 1.7695
                  CHANNELS 3 Zrotation Xrotation Yrotation
                  JOINT lIndex1
                  {
                    OFFSET 4.1246 0.487 4.1451
                    CHANNELS 3 Zrotation Xrotation Yrotation
                    JOINT lIndex2
                    {
                      OFFSET 3.4052 -1.454 2.7682
                      CHANNELS 3 Zrotation Xrotation Yrotation
                      JOINT lIndex2_End
                      {
                        OFFSET 1.4531 -1.795 1.2713
                        CHANNELS 3 Zrotation Xrotation Yrotation
                        End Site
                        {
                          OFFSET 0.0145 -0.0179 0.0127
                        }
                      }
                    }
                  }
                  JOINT lMid1
                  {
                    OFFSET 5.6954 0.21 2.1184
                    CHANNELS 3 Zrotation Xrotation Yrotation
                    JOINT lMid2
                    {
                      OFFSET 3.9766 -1.54 2.3863
                      CHANNELS 3 Zrotation Xrotation Yrotation
                      JOINT lMid2_End
                      {
                        OFFSET 1.4042 -1.926 1.125
                        CHANNELS 3 Zrotation Xrotation Yrotation
                        End Site
                        {
                          OFFSET 0.014 -0.0193 0.0113
                        }
                      }
                    }
                  }
                }
                JOINT lCarpal2
                {
                  OFFSET 2.0956 0.66 -0.3894
                  CHANNELS 3 Zrotation Xrotation Yrotation
                  JOINT lRing1
                  {
                    OFFSET 5.0395 -0.09 2.4971
                    CHANNELS 3 Zrotation Xrotation Yrotation
                    JOINT lRing2
                    {
                      OFFSET 3.7921 -1.552 1.4806
                      CHANNELS 3 Zrotation Xrotation Yrotation
                      JOINT lRing2_End
                      {
                        OFFSET 1.4655 -1.808 0.9609
                        CHANNELS 3 Zrotation Xrotation Yrotation
                        End Site
                        {
                          OFFSET 0.0147 -0.0181 0.0096
                        }
                      }
                    }
                  }
                  JOINT lPinky1
                  {
                    OFFSET 4.9141 -1.269 0.3591
                    CHANNELS 3 Zrotation Xrotation Yrotation
                    JOINT lPinky2
                    {
                      OFFSET 3.1477 -1.685 0.8462
                      CHANNELS 3 Zrotation Xrotation Yrotation
                      JOINT lPinky2_End
                      {
                        OFFSET 0.8055 -1.585 0.7955
                        CHANNELS 3 Zrotation Xrotation Yrotation
                        End Site
                        {
                          OFFSET 0.0081 -0.0158 0.008
                        }
                      }
                    }
                  }
                }
              }
            }
          }
        }
        JOINT rCollar
        {
          OFFSET -1.7069 20.075 5.0056
          CHANNELS 3 Zrotation Xrotation Yrotation
          JOINT rShldr
          {
            OFFSET -13.6458 -0.047 -4.849
            CHANNELS 3 Zrotation Xrotation Yrotation
            JOINT rForeArm
            {
              OFFSET -28.3255 -0.9759 2.2888
              CHANNELS 3 Zrotation Xrotation Yrotation
              JOINT rHand
              {
                OFFSET -22.1583 -0.53 10.8316
                CHANNELS 3 Zrotation Xrotation Yrotation
                JOINT rThumb1
                {
                  OFFSET -0.786 0.112 2.5817
                  CHANNELS 3 Zrotation Xrotation Yrotation
                  JOINT rThumb2
                  {
                    OFFSET -0.3601 -0.878 4.2331
                    CHANNELS 3 Zrotation Xrotation Yrotation
                    JOINT rThumb2_End
                    {
                      OFFSET -1.8127 -1.216 2.2227
                      CHANNELS 3 Zrotation Xrotation Yrotation
                      End Site
                      {
                        OFFSET -0.0181 -0.0122 0.0222
                      }
                    }
                  }
                }
                JOINT rCarpal1
                {
                  OFFSET -0.9571 1.114 1.7695
                  CHANNELS 3 Zrotation Xrotation Yrotation
                  JOINT rIndex1
                  {
                    OFFSET -4.1246 0.487 4.1451
                    CHANNELS 3 Zrotation Xrotation Yrotation
                    JOINT rIndex2
                    {
                      OFFSET -3.4052 -1.454 2.7682
                      CHANNELS 3 Zrotation Xrotation Yrotation
                      JOINT rIndex2_End
                      {
                        OFFSET -1.4531 -1.795 1.2713
                        CHANNELS 3 Zrotation Xrotation Yrotation
                        End Site
                        {
                          OFFSET -0.0145 -0.018 0.0127
                        }
                      }
                    }
                  }
                  JOINT rMid1
                  {
                    OFFSET -5.6954 0.21 2.1184
                    CHANNELS 3 Zrotation Xrotation Yrotation
                    JOINT rMid2
                    {
                      OFFSET -3.9766 -1.54 2.3863
                      CHANNELS 3 Zrotation Xrotation Yrotation
                      JOINT rMid2_End
                      {
                        OFFSET -1.4042 -1.926 1.125
                        CHANNELS 3 Zrotation Xrotation Yrotation
                        End Site
                        {
                          OFFSET -0.014 -0.0193 0.0113
                        }
                      }
                    }
                  }
                }
                JOINT rCarpal2
                {
                  OFFSET -2.0956 0.66 -0.3894
                  CHANNELS 3 Zrotation Xrotation Yrotation
                  JOINT rRing1
                  {
                    OFFSET -5.0395 -0.09 2.4971
                    CHANNELS 3 Zrotation Xrotation Yrotation
                    JOINT rRing2
                    {
                      OFFSET -3.7921 -1.552 1.4806
                      CHANNELS 3 Zrotation Xrotation Yrotation
                      JOINT rRing2_End
                      {
                        OFFSET -1.4655 -1.808 0.9609
                        CHANNELS 3 Zrotation Xrotation Yrotation
                        End Site
                        {
                          OFFSET -0.0147 -0.0181 0.0096
                        }
                      }
                    }
                  }
                  JOINT rPinky1
                  {
                    OFFSET -4.9141 -1.269 0.3592
                    CHANNELS 3 Zrotation Xrotation Yrotation
                    JOINT rPinky2
                    {
                      OFFSET -3.1477 -1.685 0.8462
                      CHANNELS 3 Zrotation Xrotation Yrotation
                      JOINT rPinky2_End
                      {
                        OFFSET -0.8055 -1.585 0.7955
                        CHANNELS 3 Zrotation Xrotation Yrotation
                        End Site
                        {
                          OFFSET -0.0081 -0.0158 0.008
                        }
                      }
                    }
                  }
                }
              }
            }
          }
        }
      }
    }
  }
  JOINT lThigh
  {
    OFFSET 8.367 -8.2066 0.5982
    CHANNELS 3 Zrotation Xrotation Yrotation
    JOINT lShin
    {
      OFFSET 2.1923 -43.463 -0.4932
      CHANNELS 3 Zrotation Xrotation Yrotation
      JOINT lFoot
      {
        OFFSET 0.7333 -45.8593 -2.6451
        CHANNELS 3 Zrotation Xrotation Yrotation
        End Site
        {
          OFFSET 2.6618 -4.2699 12.3931
        }
      }
    }
  }
  JOINT rThigh
  {
    OFFSET -8.367 -8.2066 0.5982
    CHANNELS 3 Zrotation Xrotation Yrotation
    JOINT rShin
    {
      OFFSET -2.1923 -43.463 -0.4931
      CHANNELS 3 Zrotation Xrotation Yrotation
      JOINT rFoot
      {
        OFFSET -0.7333 -45.8593 -2.6451
        CHANNELS 3 Zrotation Xrotation Yrotation
        End Site
        {
          OFFSET -2.6618 -4.2699 12.3931
        }
      }
    }
  }
}
MOTION
Frames:	5
Frame Time:	0.0333333
0.00116838 23.2863 121.552 -0.0122375 0.0122375 180 -0.160673 16.7209 -0.132872 -0.299268 33.4421 -0.229973 -0.299268 33.4421 -0.229973 15.5713 -42.9414 10.7465 8.54884 -5.71456 0.947033 35.2555 -47.7859 58.026 -68.3082 14.5757 -33.1454 54.2926 -5.48873 -79.2274 5.85753 -34.2823 4.76272 -6.06912e-032 -2.18663e-015 -1.59028e-015 1.84739e-006 1.66937e-006 -5.24149e-007 1.11291e-006 -1.23159e-006 -1.95509e-007 -1.59028e-015 -2.08724e-015 -0 -1.59028e-015 -2.74323e-014 6.36111e-015 1.84739e-006 1.66937e-006 -5.24149e-007 1.11291e-006 -1.23159e-006 -1.95509e-007 -1.59028e-015 -2.74323e-014 6.36111e-015 1.84739e-006 1.66937e-006 -5.24149e-007 1.11291e-006 -1.23159e-006 -1.95509e-007 -1.59028e-015 -2.08724e-015 -0 -1.59028e-015 -2.74323e-014 6.36111e-015 1.84739e-006 1.66937e-006 -5.24149e-007 1.11291e-006 -1.23159e-006 -1.95509e-007 -1.59028e-015 -2.74323e-014 6.36111e-015 1.84739e-006 1.66937e-006 -5.24149e-007 1.11291e-006 -1.23159e-006 -1.95509e-007 -3.64379 -22.4294 -21.5892 75.0955 16.7477 34.9549 6.19616 -24.4967 58.3137 -1.61784 13.273 18.5976 2.38542e-015 -9.93923e-017 -0 1.2921e-015 -3.27995e-015 6.36111e-015 3.27995e-015 -3.27995e-015 -0 2.38542e-015 -5.96354e-016 -0 1.2921e-015 -3.67752e-015 6.36111e-015 2.08724e-015 -3.67752e-015 -0 -1.98785e-016 -5.96354e-016 3.18055e-015 1.2921e-015 -3.67752e-015 6.36111e-015 2.08724e-015 -3.67752e-015 -0 -1.98785e-016 -5.96354e-016 3.18055e-015 2.38542e-015 -5.96354e-016 -0 1.2921e-015 -3.67752e-015 6.36111e-015 2.08724e-015 -3.67752e-015 -0 -1.98785e-016 -5.96354e-016 3.18055e-015 1.2921e-015 -3.67752e-015 6.36111e-015 2.08724e-015 -3.67752e-015 -0 -1.98785e-016 -5.96354e-016 3.18055e-015 8.47087 -66.2693 25.1459 172.125 31.9898 -163.264 7.37369 70.0789 7.30348 -8.46849 -66.2874 -25.1774 -172.096 31.978 163.233 -7.36065 70.0889 -7.33049 
0.00116838 23.2863 121.552 -0.0122375 0.0122375 180 -0.161593 17.0695 -0.135646 -0.300123 34.1393 -0.235006 -0.300123 34.1393 -0.235006 14.6758 -43.0622 10.136 8.03648 -4.50734 0.805895 38.2562 -49.1301 61.6048 -68.3142 14.5853 -33.1344 54.2101 -6.0695 -79.756 5.45273 -34.2557 5.98875 1.13106e-031 -4.07509e-015 1.59028e-015 1.59028e-015 -4.07509e-015 1.59028e-015 1.59028e-015 -4.17448e-015 -7.95139e-016 2.48282e-032 -8.94531e-016 1.59028e-015 1.59028e-015 1.16289e-014 7.95139e-016 3.18055e-015 -7.85199e-015 -7.95139e-016 -6.34499e-032 -4.57205e-015 -7.95139e-016 1.59028e-015 1.16289e-014 7.95139e-016 3.18055e-015 -7.85199e-015 -7.95139e-016 -6.34499e-032 -4.57205e-015 -7.95139e-016 2.48282e-032 -8.94531e-016 1.59028e-015 1.59028e-015 1.16289e-014 7.95139e-016 3.18055e-015 -7.85199e-015 -7.95139e-016 -6.34499e-032 -4.57205e-015 -7.95139e-016 1.59028e-015 1.16289e-014 7.95139e-016 3.18055e-015 -7.85199e-015 -7.95139e-016 -6.34499e-032 -4.57205e-015 -7.95139e-016 -4.34393 -24.6706 -25.1379 75.3777 17.3862 34.9509 6.68516 -23.0885 60.9223 0.183045 12.6231 13.7712 2.5345e-015 -6.85807e-015 3.18055e-015 5.96354e-016 -2.83268e-015 -9.54166e-015 2.73329e-015 -1.78906e-015 3.18055e-015 2.5345e-015 -1.68967e-015 3.18055e-015 -4.87022e-015 -7.95139e-016 -0 -2.5345e-015 -8.10048e-015 -0 6.95746e-016 -5.91384e-015 -0 -4.87022e-015 -7.95139e-016 -0 -2.5345e-015 -8.10048e-015 -0 6.95746e-016 -5.91384e-015 -0 2.5345e-015 -1.68967e-015 3.18055e-015 -4.87022e-015 -7.95139e-016 -0 -2.5345e-015 -8.10048e-015 -0 6.95746e-016 -5.91384e-015 -0 -4.87022e-015 -7.95139e-016 -0 -2.5345e-015 -8.10048e-015 -0 6.95746e-016 -5.91384e-015 -0 8.47087 -66.2693 25.1459 172.125 31.9898 -163.264 7.37369 70.0789 7.30348 -8.46849 -66.2874 -25.1774 -172.096 31.978 163.233 -7.36065 70.0889 -7.33049 
0.00116838 23.2863 121.552 -0.0122375 0.0122375 180 -0.162473 17.4198 -0.138416 -0.300862 34.8398 -0.240064 -0.300862 34.8398 -0.240064 13.7765 -43.176 9.52144 7.52689 -3.29666 0.675537 41.4778 -50.3493 65.4022 -68.3201 14.5949 -33.1235 54.1221 -6.64984 -80.2863 5.04647 -34.2363 7.21758 -1.13277e-006 -1.66994e-006 -1.00825e-005 -3.45785e-006 2.09291e-006 -8.71902e-006 -6.19534e-007 -5.55531e-007 1.7096e-007 -1.59028e-015 2.08724e-015 7.95139e-016 -1.13277e-006 -1.66994e-006 -1.00825e-005 -3.45785e-006 2.09291e-006 -8.71902e-006 -6.19534e-007 -5.55531e-007 1.7096e-007 -1.13277e-006 -1.66994e-006 -1.00825e-005 -3.45785e-006 2.09291e-006 -8.71902e-006 -6.19534e-007 -5.55531e-007 1.7096e-007 -1.59028e-015 2.08724e-015 7.95139e-016 -1.13277e-006 -1.66994e-006 -1.00825e-005 -3.45785e-006 2.09291e-006 -8.71902e-006 -6.19534e-007 -5.55531e-007 1.7096e-007 -1.13277e-006 -1.66994e-006 -1.00825e-005 -3.45785e-006 2.09291e-006 -8.71902e-006 -6.19534e-007 -5.55531e-007 1.7096e-007 -5.21254 -26.8698 -28.7885 75.6611 18.025 34.9436 7.10213 -21.6526 63.5074 1.91982 11.827 8.97286 7.95139e-016 2.67365e-014 6.36111e-015 -1.98785e-016 2.95195e-014 -0 -1.39149e-015 3.29486e-014 -3.18055e-015 7.95139e-016 3.18055e-015 6.36111e-015 -1.19271e-015 2.75317e-014 1.27222e-014 -3.37934e-015 2.84262e-014 -6.36111e-015 6.4605e-016 3.05631e-014 3.18055e-015 -1.19271e-015 2.75317e-014 1.27222e-014 -3.37934e-015 2.84262e-014 -6.36111e-015 6.4605e-016 3.05631e-014 3.18055e-015 7.95139e-016 3.18055e-015 6.36111e-015 -1.19271e-015 2.75317e-014 1.27222e-014 -3.37934e-015 2.84262e-014 -6.36111e-015 6.4605e-016 3.05631e-014 3.18055e-015 -1.19271e-015 2.75317e-014 1.27222e-014 -3.37934e-015 2.84262e-014 -6.36111e-015 6.4605e-016 3.05631e-014 3.18055e-015 8.47087 -66.2693 25.1459 172.125 31.9898 -163.264 7.37369 70.0789 7.30348 -8.46849 -66.2874 -25.1774 -172.096 31.978 163.233 -7.36065 70.0889 -7.33049 
0.00116838 23.2863 121.552 -0.0122375 0.0122375 180 -0.163311 17.7715 -0.141179 -0.301483 35.5434 -0.245145 -0.301482 35.5433 -0.245145 12.8738 -43.2827 8.90335 7.01976 -2.08292 0.55591 44.9143 -51.4276 69.4124 -68.3261 14.6046 -33.1125 54.0285 -7.22969 -80.8185 4.63905 -34.224 8.44888 -1.59028e-015 -2.98177e-015 -0 -3.18055e-015 -2.88238e-015 2.38542e-015 -1.59028e-015 9.93923e-017 -7.95139e-016 4.55184e-032 3.27995e-015 -7.95139e-016 -1.59028e-015 -1.2424e-014 3.18055e-015 -1.59028e-015 -1.53064e-014 1.59028e-015 9.93129e-032 -2.38542e-015 2.38542e-015 -1.59028e-015 -1.2424e-014 3.18055e-015 -1.59028e-015 -1.53064e-014 1.59028e-015 9.93129e-032 -2.38542e-015 2.38542e-015 4.55184e-032 3.27995e-015 -7.95139e-016 -1.59028e-015 -1.2424e-014 3.18055e-015 -1.59028e-015 -1.53064e-014 1.59028e-015 9.93129e-032 -2.38542e-015 2.38542e-015 -1.59028e-015 -1.2424e-014 3.18055e-015 -1.59028e-015 -1.53064e-014 1.59028e-015 9.93129e-032 -2.38542e-015 2.38542e-015 -6.25567 -29.0113 -32.5462 75.9458 18.6641 34.9328 7.44723 -20.1935 66.0691 3.57461 10.894 4.22405 4.32357e-015 -1.39149e-015 6.36111e-015 0 2.5345e-015 -0 -9.93923e-016 4.96962e-017 -0 4.32357e-015 -4.96962e-016 6.36111e-015 -4.96962e-017 3.42904e-015 9.54166e-015 -3.18055e-015 4.47266e-016 -6.36111e-015 -4.42296e-015 6.4605e-016 -0 -4.96962e-017 3.42904e-015 9.54166e-015 -3.18055e-015 4.47266e-016 -6.36111e-015 -4.42296e-015 6.4605e-016 -0 4.32357e-015 -4.96962e-016 6.36111e-015 -4.96962e-017 3.42904e-015 9.54166e-015 -3.18055e-015 4.47266e-016 -6.36111e-015 -4.42296e-015 6.4605e-016 -0 -4.96962e-017 3.42904e-015 9.54166e-015 -3.18055e-015 4.47266e-016 -6.36111e-015 -4.42296e-015 6.4605e-016 -0 8.47087 -66.2693 25.1459 172.125 31.9898 -163.264 7.37369 70.0789 7.30348 -8.46849 -66.2874 -25.1774 -172.096 31.978 163.233 -7.36065 70.0889 -7.33049 
0.00116838 23.2863 121.552 -0.0122375 0.0122375 180 -0.164105 18.1246 -0.143933 -0.301977 36.2494 -0.250252 -0.301977 36.2494 -0.250252 11.9676 -43.3826 8.28159 6.51477 -0.866569 0.446956 48.5514 -52.35 73.6211 -68.3321 14.6142 -33.1016 53.9293 -7.80893 -81.3526 4.23073 -34.219 9.68225 -1.73268e-006 6.89779e-007 3.13331e-007 7.93545e-007 -2.70652e-006 -4.06963e-006 -1.64463e-006 1.4904e-006 -8.8856e-007 -2.89663e-032 -6.95746e-016 -2.38542e-015 -1.73268e-006 6.89779e-007 3.13331e-007 7.93545e-007 -2.70652e-006 -4.06963e-006 -1.64463e-006 1.4904e-006 -8.8856e-007 -1.73268e-006 6.89779e-007 3.13331e-007 7.93545e-007 -2.70652e-006 -4.06963e-006 -1.64463e-006 1.4904e-006 -8.8856e-007 -2.89663e-032 -6.95746e-016 -2.38542e-015 -1.73268e-006 6.89779e-007 3.13331e-007 7.93545e-007 -2.70652e-006 -4.06963e-006 -1.64463e-006 1.4904e-006 -8.8856e-007 -1.73268e-006 6.89779e-007 3.13331e-007 7.93545e-007 -2.70652e-006 -4.06963e-006 -1.64463e-006 1.4904e-006 -8.8856e-007 -7.4779 -31.0791 -36.4152 76.2317 19.3033 34.9187 7.72094 -18.7159 68.608 5.13216 9.83635 -0.455768 3.27995e-015 -6.95746e-015 -9.54166e-015 9.93923e-016 -7.15625e-015 9.54166e-015 -2.98177e-016 -4.37326e-015 -0 9.93923e-017 -5.66536e-015 -1.27222e-014 4.27387e-015 -5.86415e-015 -0 9.93923e-016 -2.78299e-015 6.36111e-015 3.97569e-015 -3.08116e-015 3.18055e-015 4.27387e-015 -5.86415e-015 -0 9.93923e-016 -2.78299e-015 6.36111e-015 3.97569e-015 -3.08116e-015 3.18055e-015 9.93923e-017 -5.66536e-015 -1.27222e-014 4.27387e-015 -5.86415e-015 -0 9.93923e-016 -2.78299e-015 6.36111e-015 3.97569e-015 -3.08116e-015 3.18055e-015 4.27387e-015 -5.86415e-015 -0 9.93923e-016 -2.78299e-015 6.36111e-015 3.97569e-015 -3.08116e-015 3.18055e-015 8.47087 -66.2693 25.1459 172.125 31.9898 -163.264 7.37369 70.0789 7.30348 -8.46849 -66.2874 -25.1774 -172.096 31.978 163.233 -7.36065 70.0889 -7.33049 
